<?xml version="1.0" encoding="utf-8"?>
<!-- Generator: Adobe Illustrator 18.1.1, SVG Export Plug-In . SVG Version: 6.00 Build 0)  -->
<!DOCTYPE svg PUBLIC "-//W3C//DTD SVG 1.1//EN" "http://www.w3.org/Graphics/SVG/1.1/DTD/svg11.dtd" [
	<!ENTITY st0 "fill:none;stroke:#010101;stroke-miterlimit:10;">
]>
<svg version="1.1" id="Layer_1" xmlns="http://www.w3.org/2000/svg" xmlns:xlink="http://www.w3.org/1999/xlink" x="0px" y="0px"
	 viewBox="0 0 91.3 151.9" style="enable-background:new 0 0 91.3 151.9;" xml:space="preserve">
<polygon style="&st0;" points="45.3,16.1 9.3,75.9 45.3,135.8 82,75.9 "/>
<polygon style="&st0;" points="74.3,17.1 38.3,76.9 74.3,136.8 111,76.9 "/>
<polygon style="&st0;" points="74.3,17.1 38.3,76.9 74.3,136.8 111,76.9 "/>
<polygon style="&st0;" points="36,-19.8 0,40 36,99.8 72.6,40 "/>
<polygon style="&st0;" points="-21,13.6 -57,73.4 -21,133.2 15.7,73.4 "/>
<polygon style="&st0;" points="56.7,11.4 20.7,71.2 56.7,131.1 93.4,71.2 "/>
<polygon style="&st0;" points="74.3,17.1 38.3,76.9 74.3,136.8 111,76.9 "/>
<polygon style="&st0;" points="93.3,34.1 57.3,93.9 93.3,153.8 130,93.9 "/>
<polygon style="&st0;" points="122.3,35.1 86.3,94.9 122.3,154.8 159,94.9 "/>
<polygon style="&st0;" points="122.3,35.1 86.3,94.9 122.3,154.8 159,94.9 "/>
<polygon style="&st0;" points="84,-1.8 48,58 84,117.8 120.6,58 "/>
<polygon style="&st0;" points="27,31.6 -9,91.4 27,151.2 63.7,91.4 "/>
<polygon style="&st0;" points="104.7,29.4 68.7,89.2 104.7,149.1 141.4,89.2 "/>
<polygon style="&st0;" points="122.3,35.1 86.3,94.9 122.3,154.8 159,94.9 "/>
<polygon style="&st0;" points="93.3,34.1 57.3,93.9 93.3,153.8 130,93.9 "/>
<polygon style="&st0;" points="122.3,35.1 86.3,94.9 122.3,154.8 159,94.9 "/>
<polygon style="&st0;" points="122.3,35.1 86.3,94.9 122.3,154.8 159,94.9 "/>
<polygon style="&st0;" points="84,-1.8 48,58 84,117.8 120.6,58 "/>
<polygon style="&st0;" points="27,31.6 -9,91.4 27,151.2 63.7,91.4 "/>
<polygon style="&st0;" points="104.7,29.4 68.7,89.2 104.7,149.1 141.4,89.2 "/>
<polygon style="&st0;" points="122.3,35.1 86.3,94.9 122.3,154.8 159,94.9 "/>
<polygon style="&st0;" points="93.3,34.1 57.3,93.9 93.3,153.8 130,93.9 "/>
<polygon style="&st0;" points="122.3,35.1 86.3,94.9 122.3,154.8 159,94.9 "/>
<polygon style="&st0;" points="122.3,35.1 86.3,94.9 122.3,154.8 159,94.9 "/>
<polygon style="&st0;" points="84,-1.8 48,58 84,117.8 120.6,58 "/>
<polygon style="&st0;" points="27,31.6 -9,91.4 27,151.2 63.7,91.4 "/>
<polygon style="&st0;" points="104.7,29.4 68.7,89.2 104.7,149.1 141.4,89.2 "/>
<polygon style="&st0;" points="122.3,35.1 86.3,94.9 122.3,154.8 159,94.9 "/>
<polygon style="&st0;" points="93.3,34.1 57.3,93.9 93.3,153.8 130,93.9 "/>
<polygon style="&st0;" points="122.3,35.1 86.3,94.9 122.3,154.8 159,94.9 "/>
<polygon style="&st0;" points="122.3,35.1 86.3,94.9 122.3,154.8 159,94.9 "/>
<polygon style="&st0;" points="84,-1.8 48,58 84,117.8 120.6,58 "/>
<polygon style="&st0;" points="27,31.6 -9,91.4 27,151.2 63.7,91.4 "/>
<polygon style="&st0;" points="104.7,29.4 68.7,89.2 104.7,149.1 141.4,89.2 "/>
<polygon style="&st0;" points="122.3,35.1 86.3,94.9 122.3,154.8 159,94.9 "/>
</svg>
