<?xml version="1.0" encoding="utf-8"?>
<!-- Generator: Adobe Illustrator 18.1.1, SVG Export Plug-In . SVG Version: 6.00 Build 0)  -->
<!DOCTYPE svg PUBLIC "-//W3C//DTD SVG 1.1//EN" "http://www.w3.org/Graphics/SVG/1.1/DTD/svg11.dtd">
<svg version="1.1" id="Layer_1" xmlns="http://www.w3.org/2000/svg" xmlns:xlink="http://www.w3.org/1999/xlink" x="0px" y="0px"
	 viewBox="0 0 595.3 841.9" enable-background="new 0 0 595.3 841.9" xml:space="preserve">
<polygon fill="none" stroke="#010101" stroke-width="0.5" stroke-miterlimit="10" points="26.4,443.8 24.5,440.6 26.4,437.4 
	28.2,440.6 "/>
<polygon fill="none" stroke="#010101" stroke-width="0.5" stroke-miterlimit="10" points="54.9,390.2 52.3,386 54.9,381.7 57.3,386 
	"/>
<polygon fill="none" stroke="#010101" stroke-width="0.5" stroke-miterlimit="10" points="157.9,464.4 155.3,460.2 157.9,456 
	160.3,460.2 "/>
<polygon fill="none" stroke="#010101" stroke-width="0.5" stroke-miterlimit="10" points="566.3,442.9 570.8,450.3 566.3,457.6 
	562.1,450.3 "/>
<polygon fill="none" stroke="#010101" stroke-width="0.5" stroke-miterlimit="10" points="475.8,437.4 479.7,443.8 475.8,450.3 
	472.1,443.8 "/>
<polygon fill="none" stroke="#010101" stroke-width="0.5" stroke-miterlimit="10" points="98.7,421.3 102.7,427.7 98.7,434.2 
	95.1,427.7 "/>
<polygon fill="none" stroke="#010101" stroke-width="0.5" stroke-miterlimit="10" points="524.5,390.2 527.1,394.4 524.5,398.6 
	522.2,394.4 "/>
<polygon fill="none" stroke="#010101" stroke-width="0.5" stroke-miterlimit="10" points="401.1,455.1 402.7,457.6 401.1,460.2 
	399.7,457.6 "/>
</svg>
