<?xml version="1.0" encoding="utf-8"?>
<!-- Generator: Adobe Illustrator 18.1.1, SVG Export Plug-In . SVG Version: 6.00 Build 0)  -->
<!DOCTYPE svg PUBLIC "-//W3C//DTD SVG 1.1//EN" "http://www.w3.org/Graphics/SVG/1.1/DTD/svg11.dtd" [
	<!ENTITY st0 "fill:none;stroke:#010101;stroke-miterlimit:10;">
]>
<svg version="1.1" id="Layer_1" xmlns="http://www.w3.org/2000/svg" xmlns:xlink="http://www.w3.org/1999/xlink" x="0px" y="0px"
	 viewBox="0 0 1169 154" style="enable-background:new 0 0 1169 154;" xml:space="preserve">
<polygon style="&st0;" points="51.9,121.9 48.1,115.6 51.9,109.4 55.4,115.6 "/>
<polygon style="&st0;" points="107.9,16.6 102.8,8.3 107.9,0 112.6,8.3 "/>
<polygon style="&st0;" points="432.3,142.8 427.2,134.6 432.3,126.3 437,134.6 "/>
<polygon style="&st0;" points="1112.1,120.1 1120.9,134.6 1112.1,149 1103.9,134.6 "/>
<polygon style="&st0;" points="912.8,121.9 920.6,134.5 912.8,147.2 905.6,134.5 "/>
<polygon style="&st0;" points="193.9,77.6 201.7,90.3 193.9,103 186.7,90.3 "/>
<polygon style="&st0;" points="1030.1,43 1035.2,51.3 1030.1,59.6 1025.4,51.3 "/>
<polygon style="&st0;" points="727.5,144 730.5,149 727.5,154 724.7,149 "/>
</svg>
