<svg xmlns="http://www.w3.org/2000/svg" viewBox="0 0 595.3 841.9"><path fill="none" stroke="#010101" stroke-width=".5" stroke-miterlimit="10" d="M551.7 354l-3.6-5.7 3.6-5.8 3.3 5.8zM247 343.4l-3.6-5.9 3.6-5.9 3.4 5.9zM75.1 408.4l-2.3-3.9 2.3-3.8 2.2 3.8zM209.2 499.5l-2.4-3.8 2.4-3.9 2.2 3.9zM153.1 360.8l-1.4-2.3 1.4-2.4 1.3 2.4zM562.5 464.4l4.2 6.7-4.2 6.7-3.8-6.7zM421.4 483.9l3.5 5.9-3.5 5.9-3.4-5.9zM63.8 501.6l3.5 5.9-3.5 5.9-3.4-5.9zM32.6 336.3l4.4 7.1-4.4 7-3.9-7zM450.2 340.6l2.4 3.8-2.4 3.9-2.2-3.9zM512.7 385.9l1.4 2.2-1.4 2.4-1.3-2.4zM321 487.5l1.3 2.3-1.3 2.3-1.4-2.3z"/></svg>