<?xml version="1.0" encoding="utf-8"?>
<!-- Generator: Adobe Illustrator 18.1.1, SVG Export Plug-In . SVG Version: 6.00 Build 0)  -->
<!DOCTYPE svg PUBLIC "-//W3C//DTD SVG 1.1//EN" "http://www.w3.org/Graphics/SVG/1.1/DTD/svg11.dtd">
<svg version="1.1" id="Layer_1" xmlns="http://www.w3.org/2000/svg" xmlns:xlink="http://www.w3.org/1999/xlink" x="0px" y="0px"
	 viewBox="0 0 595.3 841.9" enable-background="new 0 0 595.3 841.9" xml:space="preserve">
<polygon fill="none" stroke="#010101" stroke-width="0.5" stroke-miterlimit="10" points="551.7,354 548.1,348.3 551.7,342.5 
	555,348.3 "/>
<polygon fill="none" stroke="#010101" stroke-width="0.5" stroke-miterlimit="10" points="247,343.4 243.4,337.5 247,331.6 
	250.4,337.5 "/>
<polygon fill="none" stroke="#010101" stroke-width="0.5" stroke-miterlimit="10" points="75.1,408.4 72.8,404.5 75.1,400.7 
	77.3,404.5 "/>
<polygon fill="none" stroke="#010101" stroke-width="0.5" stroke-miterlimit="10" points="209.2,499.5 206.8,495.7 209.2,491.8 
	211.4,495.7 "/>
<polygon fill="none" stroke="#010101" stroke-width="0.5" stroke-miterlimit="10" points="153.1,360.8 151.7,358.5 153.1,356.1 
	154.4,358.5 "/>
<polygon fill="none" stroke="#010101" stroke-width="0.5" stroke-miterlimit="10" points="562.5,464.4 566.7,471.1 562.5,477.8 
	558.7,471.1 "/>
<polygon fill="none" stroke="#010101" stroke-width="0.5" stroke-miterlimit="10" points="421.4,483.9 424.9,489.8 421.4,495.7 
	418,489.8 "/>
<polygon fill="none" stroke="#010101" stroke-width="0.5" stroke-miterlimit="10" points="63.8,501.6 67.3,507.5 63.8,513.4 
	60.4,507.5 "/>
<polygon fill="none" stroke="#010101" stroke-width="0.5" stroke-miterlimit="10" points="32.6,336.3 37,343.4 32.6,350.4 
	28.7,343.4 "/>
<polygon fill="none" stroke="#010101" stroke-width="0.5" stroke-miterlimit="10" points="450.2,340.6 452.6,344.4 450.2,348.3 
	448,344.4 "/>
<polygon fill="none" stroke="#010101" stroke-width="0.5" stroke-miterlimit="10" points="512.7,385.9 514.1,388.1 512.7,390.5 
	511.4,388.1 "/>
<polygon fill="none" stroke="#010101" stroke-width="0.5" stroke-miterlimit="10" points="321,487.5 322.3,489.8 321,492.1 
	319.6,489.8 "/>
</svg>
