<?xml version="1.0" encoding="utf-8"?>
<!-- Generator: Adobe Illustrator 18.1.1, SVG Export Plug-In . SVG Version: 6.00 Build 0)  -->
<!DOCTYPE svg PUBLIC "-//W3C//DTD SVG 1.1//EN" "http://www.w3.org/Graphics/SVG/1.1/DTD/svg11.dtd" [
	<!ENTITY st0 "fill:none;stroke:#010101;stroke-miterlimit:10;">
]>
<svg version="1.1" id="Layer_1" xmlns="http://www.w3.org/2000/svg" xmlns:xlink="http://www.w3.org/1999/xlink" x="0px" y="0px"
	 viewBox="0 0 1281.8 431.1" style="enable-background:new 0 0 1281.8 431.1;" xml:space="preserve">
<g>
	<polygon style="&st0;" points="1187.9,71.5 1180.3,59.1 1187.9,46.6 1195,59.1 	"/>
	<polygon style="&st0;" points="531.9,48.5 524.1,35.8 531.9,23.1 539.1,35.8 	"/>
	<polygon style="&st0;" points="70.3,306.5 66.5,300.3 70.3,294.1 73.8,300.3 	"/>
	<polygon style="&st0;" points="161.8,188.5 156.7,180.2 161.8,171.9 166.5,180.2 	"/>
	<polygon style="&st0;" points="450.5,372.1 445.4,363.8 450.5,355.5 455.2,363.8 	"/>
	<polygon style="&st0;" points="329.6,86 326.6,81 329.6,76 332.5,81 	"/>
	<polygon style="&st0;" points="1211.3,309.1 1220.2,323.5 1211.3,338 1203.1,323.5 	"/>
	<polygon style="&st0;" points="907.3,351.1 915,363.8 907.3,376.5 900,363.8 	"/>
	<polygon style="&st0;" points="137.3,389.2 145,401.9 137.3,414.6 130,401.9 	"/>
	<polygon style="&st0;" points="70.3,33.3 79.6,48.5 70.3,63.7 61.7,48.5 	"/>
	<polygon style="&st0;" points="969.4,42.5 974.5,50.8 969.4,59.1 964.7,50.8 	"/>
	<polygon style="&st0;" points="1063.3,251.5 1068.4,259.8 1063.3,268.1 1058.6,259.8 	"/>
	<polygon style="&st0;" points="1104,140 1107,144.9 1104,149.9 1101.1,144.9 	"/>
	<polygon style="&st0;" points="691.1,358.8 694.1,363.8 691.1,368.8 688.2,363.8 	"/>
	<polygon style="&st0;" points="778.1,102.4 781.1,107.4 778.1,112.4 775.2,107.4 	"/>
</g>
</svg>
